<?xml version="1.0" standalone="no"?>
<!DOCTYPE svg PUBLIC "-//W3C//DTD SVG 20010904//EN"
 "http://www.w3.org/TR/2001/REC-SVG-20010904/DTD/svg10.dtd">
<svg version="1.0" xmlns="http://www.w3.org/2000/svg"
 width="1196.000000pt" height="1196.000000pt" viewBox="0 0 1196.000000 1196.000000"
 preserveAspectRatio="xMidYMid meet">
<metadata>
Created by potrace 1.14, written by Peter Selinger 2001-2017
</metadata>
<g transform="translate(0.000000,1196.000000) scale(0.100000,-0.100000)"
fill="#000000" stroke="none">
<path d="M8681 11931 c-44 -41 -56 -110 -68 -376 -7 -161 -9 -2794 -3 -3145 4
-195 17 -332 36 -378 39 -95 302 -109 408 -22 27 22 37 55 44 150 9 116 9
3357 0 3495 -13 187 -36 272 -82 293 -12 5 -85 9 -163 10 -142 0 -143 0 -172
-27z"/>
<path d="M7008 11664 c-2 -1 -19 -6 -38 -9 -49 -8 -110 -53 -133 -99 -39 -75
-35 -123 28 -316 31 -96 66 -200 77 -230 11 -30 26 -82 34 -115 8 -33 23 -82
33 -110 33 -89 89 -269 96 -310 4 -22 14 -48 22 -57 8 -9 17 -36 20 -60 3 -24
14 -54 23 -68 10 -14 20 -43 22 -65 3 -22 12 -56 21 -75 9 -19 27 -73 41 -120
13 -47 31 -105 39 -130 9 -25 39 -119 67 -210 29 -91 72 -226 95 -300 42 -129
69 -215 185 -590 28 -91 55 -176 60 -190 4 -14 25 -79 45 -145 152 -494 210
-613 310 -631 58 -10 134 -12 186 -3 131 23 173 67 173 183 0 91 -5 121 -49
291 -47 183 -199 664 -317 1005 -22 63 -45 133 -50 155 -11 47 -4 26 -118 365
-48 146 -147 447 -220 670 -131 403 -145 447 -160 485 -30 79 -85 250 -95 297
-7 31 -20 67 -29 79 -9 13 -16 37 -16 54 0 16 -9 44 -20 60 -11 17 -20 36 -20
43 0 55 -74 119 -160 137 -37 9 -147 15 -152 9z"/>
<path d="M5459 10889 c-208 -31 -276 -257 -142 -476 21 -34 52 -77 68 -95 29
-31 100 -129 189 -260 21 -32 46 -65 55 -75 9 -10 61 -81 114 -158 54 -77 167
-237 252 -355 194 -269 181 -252 452 -635 368 -520 710 -999 829 -1158 70 -94
114 -124 201 -135 112 -15 221 19 267 81 18 25 21 43 21 130 0 170 -58 304
-195 452 -31 33 -116 148 -190 255 -112 164 -201 290 -276 395 -8 11 -54 74
-102 140 -78 107 -747 1050 -826 1165 -17 25 -33 47 -36 50 -3 3 -48 66 -100
140 -226 324 -355 489 -406 521 -37 22 -101 29 -175 18z"/>
<path d="M4194 9620 c-133 -14 -207 -97 -208 -235 -1 -85 5 -110 41 -176 48
-89 63 -102 413 -354 113 -82 246 -178 295 -215 251 -186 925 -682 1185 -871
162 -119 401 -294 530 -390 477 -356 466 -349 598 -343 133 6 209 61 238 174
24 94 -22 218 -120 321 -35 37 -61 60 -151 132 -5 5 -82 60 -170 123 -88 64
-171 124 -185 134 -14 10 -90 66 -170 124 -80 58 -156 114 -169 123 -13 10
-164 121 -335 246 -171 126 -324 239 -341 252 -16 13 -51 38 -77 57 -26 18
-109 78 -184 133 -181 133 -447 326 -475 345 -29 19 -365 271 -445 334 -81 62
-182 94 -270 86z"/>
<path d="M3341 8014 c-60 -17 -105 -56 -131 -111 -19 -40 -23 -66 -24 -148 0
-55 3 -116 7 -136 10 -47 58 -95 127 -126 65 -30 761 -268 840 -288 57 -15
385 -122 551 -181 52 -19 106 -34 120 -34 13 0 38 -9 54 -20 17 -11 44 -20 61
-20 17 0 42 -9 56 -19 13 -11 39 -22 58 -25 20 -3 172 -51 340 -106 168 -56
316 -104 330 -106 14 -3 54 -15 90 -28 277 -101 875 -290 933 -294 94 -7 159
31 200 118 24 52 34 210 17 272 -14 48 -66 93 -160 136 -86 39 -1093 380
-1157 391 -24 4 -51 15 -61 24 -10 10 -32 17 -48 17 -16 0 -46 9 -67 20 -20
11 -47 20 -60 20 -12 0 -39 9 -60 20 -20 11 -54 23 -74 26 -20 3 -52 14 -72
25 -20 10 -49 19 -65 19 -16 0 -38 7 -48 16 -10 10 -41 21 -69 25 -28 5 -59
15 -68 22 -9 8 -35 17 -59 21 -24 4 -54 13 -66 22 -13 8 -41 17 -62 19 -21 3
-50 13 -64 22 -14 10 -41 19 -60 21 -19 2 -49 12 -66 23 -17 10 -44 19 -60 19
-16 0 -42 9 -59 20 -16 11 -41 20 -55 20 -14 0 -43 9 -65 20 -21 11 -57 22
-79 26 -23 3 -48 12 -57 20 -9 8 -39 18 -66 23 -27 4 -60 15 -74 24 -13 9 -35
17 -49 17 -14 0 -42 9 -62 20 -21 11 -53 22 -73 24 -19 3 -69 20 -109 40 -182
86 -339 119 -435 90z"/>
<path d="M4048 6255 c-2 -1 -127 -6 -278 -9 -282 -7 -342 -10 -540 -21 -239
-14 -270 -19 -298 -53 -53 -64 -65 -196 -26 -305 18 -52 70 -112 110 -127 14
-6 98 -13 187 -16 304 -13 1889 -6 2557 11 96 2 274 7 395 10 421 10 614 23
642 41 13 8 33 33 45 57 19 35 23 58 23 137 0 84 -3 102 -28 151 -30 62 -50
75 -127 83 -135 14 -211 19 -580 33 -136 5 -2077 13 -2082 8z"/>
<path d="M6570 5519 c-13 -5 -27 -14 -30 -18 -3 -5 -25 -11 -49 -15 -24 -3
-55 -13 -69 -22 -13 -9 -39 -18 -56 -21 -17 -2 -89 -24 -161 -48 -71 -24 -265
-87 -430 -140 -165 -53 -421 -137 -570 -185 -148 -49 -351 -114 -450 -145 -99
-31 -331 -105 -515 -165 -499 -162 -724 -234 -735 -236 -30 -5 -212 -67 -239
-81 -138 -70 -184 -306 -84 -428 43 -51 82 -68 158 -68 115 -1 231 27 595 143
203 65 492 156 665 210 91 28 302 96 470 150 168 55 406 131 530 170 274 87
571 183 785 255 88 30 174 56 191 59 17 3 48 13 69 22 21 9 68 25 103 36 36
11 82 30 102 43 115 73 174 224 135 348 -26 84 -50 107 -131 127 -77 20 -245
25 -284 9z"/>
<path d="M6961 4904 c-29 -8 -67 -22 -84 -32 -33 -18 -174 -114 -194 -132 -7
-5 -27 -20 -45 -33 -18 -12 -138 -99 -266 -192 -129 -94 -253 -183 -276 -200
-24 -16 -236 -170 -472 -341 -236 -171 -525 -380 -642 -465 -117 -85 -279
-202 -360 -262 -81 -59 -187 -135 -235 -170 -298 -210 -367 -270 -405 -349
-73 -157 2 -326 162 -363 130 -30 313 58 626 302 63 49 171 128 240 177 69 48
168 119 220 157 52 39 102 73 110 76 8 4 20 12 26 17 6 6 57 45 114 86 56 41
148 109 204 150 55 42 166 123 246 180 80 58 150 108 155 113 6 4 80 58 165
119 918 655 955 683 996 746 25 41 27 52 27 142 -1 104 -20 169 -66 218 -54
58 -152 80 -246 56z"/>
<path d="M7491 4443 c-95 -24 -186 -106 -292 -260 -29 -43 -61 -87 -71 -98
-11 -11 -55 -72 -99 -136 -44 -64 -91 -129 -104 -145 -13 -16 -72 -96 -131
-179 -154 -216 -483 -673 -544 -755 -67 -91 -832 -1150 -905 -1255 -160 -226
-164 -419 -13 -496 49 -25 70 -30 128 -30 65 0 132 23 191 66 63 45 79 63 192
219 167 231 282 390 318 440 20 28 112 157 206 286 93 129 216 300 273 380 57
80 140 195 184 255 44 61 143 198 220 305 76 107 165 229 196 270 31 41 101
138 154 215 54 77 122 165 150 195 132 139 220 327 230 487 5 81 -9 122 -61
171 -69 67 -138 87 -222 65z"/>
<path d="M8059 4104 c-61 -18 -130 -81 -162 -146 -25 -53 -86 -236 -292 -873
-59 -181 -117 -357 -130 -391 -14 -33 -27 -80 -30 -104 -3 -24 -12 -51 -20
-60 -8 -9 -19 -40 -25 -70 -6 -29 -15 -60 -22 -68 -12 -14 -15 -23 -22 -73 -1
-15 -10 -37 -20 -50 -9 -13 -16 -35 -16 -49 0 -14 -9 -44 -20 -65 -11 -22 -23
-58 -26 -80 -2 -21 -11 -46 -19 -55 -8 -8 -17 -36 -21 -60 -4 -25 -15 -59 -25
-76 -11 -17 -19 -43 -19 -58 0 -14 -9 -43 -20 -63 -11 -21 -20 -49 -20 -63 0
-14 -9 -39 -19 -57 -11 -17 -23 -51 -26 -74 -4 -24 -10 -50 -15 -59 -4 -8 -24
-62 -43 -120 -20 -58 -43 -125 -51 -150 -30 -88 -86 -268 -141 -455 -83 -280
-84 -384 -7 -458 33 -32 59 -37 193 -38 206 -1 217 15 383 519 51 158 105 318
120 356 14 37 26 78 26 90 0 12 9 37 19 57 10 19 21 51 24 70 2 20 12 48 22
62 9 15 19 46 21 69 2 22 8 46 14 52 5 7 45 121 89 254 44 133 85 250 90 260
5 10 12 36 15 58 4 22 15 58 26 79 11 22 20 51 20 65 0 14 9 39 20 55 11 17
20 44 20 60 0 17 9 45 20 63 11 18 20 45 20 60 0 15 9 45 21 66 11 21 22 50
24 65 2 14 25 85 50 156 43 119 149 447 180 555 7 25 36 124 63 220 73 255 85
301 83 343 -1 44 -38 106 -80 136 -71 51 -187 70 -272 45z"/>
<path d="M8762 3979 c-61 -10 -127 -41 -141 -67 -17 -32 -31 -219 -46 -589
-23 -585 -23 -2369 0 -2863 7 -147 16 -295 21 -325 12 -82 17 -89 74 -108 84
-28 240 -24 317 8 18 8 37 25 42 38 30 78 45 661 45 1717 0 698 -8 1396 -19
1610 -2 36 -6 128 -9 205 -4 77 -9 158 -11 180 -3 22 -7 60 -10 85 -4 32 -13
51 -32 67 -46 38 -145 56 -231 42z"/>
</g>
</svg>
