<?xml version="1.0" encoding="utf-8"?>
<!-- Generator: Adobe Illustrator 21.0.1, SVG Export Plug-In . SVG Version: 6.00 Build 0)  -->
<svg version="1.1" id="Layer_1" xmlns="http://www.w3.org/2000/svg" xmlns:xlink="http://www.w3.org/1999/xlink" x="0px" y="0px"
	 viewBox="0 0 540 154" style="enable-background:new 0 0 540 154;" xml:space="preserve">
<style type="text/css">
	.st0{fill:#CF6758;}
	.st1{fill:#FDC77C;}
	.st2{fill:#F68B5F;}
	.st3{fill:#F4763A;}
	.st4{fill:#CE4631;}
	.st5{fill:#CE3C2A;}
	.st6{fill:#CD312A;}
	.st7{fill:#F04E27;}
	.st8{fill:#CD2C27;}
	.st9{fill:#CD2127;}
	.st10{fill:#B12025;}
	.st11{fill:#FFFFFF;}
	.st12{fill:#232060;}
</style>
<g>
	<g>
		<path class="st0" d="M88.6,63L21,63C10.2,68,2,77,2,77s8.2,9,19,14l67.6,0c10.8-5,19-14,19-14S99.4,68,88.6,63z"/>
		<path class="st1" d="M68.8,110.8l0-67.6c-5-10.8-14-19-14-19s-9,8.2-14,19l0,67.6c5,10.8,14,19,14,19S63.8,121.6,68.8,110.8z"/>
		<path class="st2" d="M74.6,77l14-14c4.1-11.2,3.5-23.4,3.5-23.4S80,39.1,68.8,43.2l-14,14l-14-14c-11.2-4.1-23.4-3.5-23.4-3.5
			S17,51.8,21,63l14,14L21,91c-4.1,11.2-3.5,23.4-3.5,23.4s12.2,0.5,23.4-3.5l14-14l14,14c11.2,4.1,23.4,3.5,23.4,3.5
			s0.5-12.2-3.5-23.4L74.6,77z"/>
		<path class="st3" d="M64.9,77L72,59.9c0.1-1,0.2-2.1,0.2-3.2c0-4.7-1.4-9.3-3.3-13.5c-4.4,1.6-8.6,3.9-11.9,7.2
			c-0.8,0.8-1.5,1.6-2.1,2.4c-0.6-0.8-1.3-1.6-2.1-2.4c-3.3-3.3-7.5-5.6-11.9-7.2c-2,4.2-3.3,8.8-3.3,13.5c0,1.1,0.1,2.1,0.2,3.2
			L44.8,77l-7.1,17.1c-0.1,1-0.2,2.1-0.2,3.2c0,4.7,1.4,9.3,3.3,13.5c4.4-1.6,8.6-3.9,11.9-7.2c0.8-0.8,1.5-1.6,2.1-2.4
			c0.6,0.8,1.3,1.6,2.1,2.4c3.3,3.3,7.5,5.6,11.9,7.2c2-4.2,3.3-8.8,3.3-13.5c0-1.1-0.1-2.1-0.2-3.2L64.9,77z"/>
		<path class="st4" d="M79.1,77L79.1,77L79.1,77c0.8-0.6,1.6-1.3,2.4-2.1c3.3-3.3,5.6-7.5,7.2-11.9c-4.2-2-8.8-3.3-13.5-3.3
			c-1.1,0-2.1,0.1-3.2,0.2L54.8,67l-17.1-7.1c-1-0.1-2.1-0.2-3.2-0.2c-4.7,0-9.3,1.4-13.5,3.3c1.6,4.4,3.9,8.6,7.2,11.9
			c0.8,0.8,1.6,1.5,2.4,2.1c-0.8,0.6-1.6,1.3-2.4,2.1c-3.3,3.3-5.6,7.5-7.2,11.9c4.2,2,8.8,3.3,13.5,3.3c1.1,0,2.1-0.1,3.2-0.2
			L54.8,87L72,94.1c1,0.1,2.1,0.2,3.2,0.2c4.7,0,9.3-1.4,13.5-3.3c-1.6-4.4-3.9-8.6-7.2-11.9C80.7,78.3,79.9,77.6,79.1,77z"/>
		<path class="st5" d="M62.1,77l5.1-5.1c2.3-3.4,4.1-7.5,4.7-12c-4.5,0.6-8.6,2.5-12,4.7l-5.1,5.1l-5.1-5.1c-3.4-2.3-7.5-4.1-12-4.7
			c0.6,4.5,2.5,8.6,4.7,12l5.1,5.1l-5.1,5.1c-2.3,3.4-4.1,7.5-4.7,12c4.5-0.6,8.6-2.5,12-4.7l5.1-5.1l5.1,5.1
			c3.4,2.3,7.5,4.1,12,4.7c-0.6-4.5-2.5-8.6-4.7-12L62.1,77z"/>
		<path class="st6" d="M67.2,71.9l-24.8,0c-4,0.8-8.2,2.4-11.8,5.1c3.6,2.8,7.8,4.3,11.8,5.1l24.8,0c4-0.8,8.2-2.4,11.8-5.1
			C75.4,74.2,71.3,72.7,67.2,71.9z"/>
		<path class="st7" d="M60,89.4l0-24.8c-0.8-4-2.4-8.2-5.1-11.8c-2.8,3.6-4.3,7.8-5.1,11.8l0,24.8c0.8,4,2.4,8.2,5.1,11.8
			C57.6,97.6,59.2,93.4,60,89.4z"/>
		<path class="st8" d="M60.7,71.1c-0.1-2-0.3-4.3-0.8-6.5c-1.9,1.3-3.6,2.7-5.1,4.1c-1.5-1.4-3.2-2.8-5.1-4.1
			c-0.5,2.2-0.7,4.5-0.8,6.5l2.4,5.9l-2.4,5.9c0.1,2,0.3,4.3,0.8,6.5c1.9-1.3,3.6-2.7,5.1-4.1l0,0l0,0c1.5,1.4,3.2,2.8,5.1,4.1
			c0.5-2.2,0.7-4.5,0.8-6.5L58.3,77L60.7,71.1z"/>
		<path class="st9" d="M60.8,79.5c0-0.2,0-0.4,0-0.6l-8.3-7.7c-1.1,0-2.2,0-3.5,0c0,1.2,0,2.4,0,3.5c0,0.2,0,0.4,0,0.6l8.3,7.7
			c1.1,0,2.2,0,3.5,0C60.8,81.7,60.8,80.5,60.8,79.5z"/>
		<path class="st9" d="M48.9,79.5c0-0.2,0-0.4,0-0.6l8.3-7.7c1.1,0,2.2,0,3.5,0c0,1.2,0,2.4,0,3.5c0,0.2,0,0.4,0,0.6l-8.3,7.7
			c-1.1,0-2.2,0-3.5,0C48.9,81.7,48.9,80.5,48.9,79.5z"/>
		<path class="st10" d="M58.9,72.9c-0.4-0.4-0.8-0.9-1.2-1.4c-0.1-0.2-0.3-0.3-0.4-0.5c-0.7-0.8-1.6-1.6-2.5-2.4
			c-0.9,0.8-1.7,1.6-2.5,2.4c-0.1,0.2-0.3,0.3-0.4,0.5c-0.4,0.5-0.8,0.9-1.2,1.4c-0.6,0.7-1,1.3-1.4,1.8c-0.1,0.2-0.2,0.3-0.4,0.5
			c-0.8,1.1-1.3,1.8-1.3,1.8s0.4,0.7,1.3,1.8c0.1,0.1,0.2,0.3,0.4,0.5c0.4,0.5,0.9,1.1,1.5,1.8c0.4,0.4,0.8,0.9,1.2,1.4
			c0.1,0.2,0.3,0.3,0.4,0.5c0.7,0.8,1.6,1.6,2.5,2.4c0.9-0.8,1.7-1.6,2.5-2.4c0.1-0.2,0.3-0.3,0.4-0.5c0.4-0.5,0.8-0.9,1.2-1.4
			c0.6-0.7,1-1.3,1.5-1.8c0.1-0.2,0.2-0.3,0.4-0.5C61.6,77.7,62,77,62,77s-0.4-0.7-1.3-1.8c-0.1-0.1-0.2-0.3-0.4-0.5
			C60,74.2,59.5,73.6,58.9,72.9z"/>
	</g>
	<path class="st11" d="M54.8,44.9c17.7,0,32.1,14.4,32.1,32.1c0,17.7-14.4,32.1-32.1,32.1c-17.7,0-32.1-14.4-32.1-32.1
		C22.7,59.3,37.1,44.9,54.8,44.9 M54.8,39.3C34,39.3,17.1,56.2,17.1,77c0,20.8,16.9,37.7,37.7,37.7c20.8,0,37.7-16.9,37.7-37.7
		C92.5,56.2,75.7,39.3,54.8,39.3L54.8,39.3z"/>
</g>
<g>
	<path class="st12" d="M123.6,39.8h6V50h11.7V39.8h6v27.4h-6V55.4h-11.7v11.8h-6V39.8z"/>
	<path class="st12" d="M164,64.8L164,64.8c-0.7,1-1.6,1.7-2.6,2.2c-1.1,0.4-2.2,0.7-3.4,0.7c-0.9,0-1.7-0.1-2.5-0.4
		s-1.5-0.6-2.1-1.1c-0.6-0.5-1.1-1.1-1.5-1.8c-0.4-0.7-0.5-1.6-0.5-2.5c0-1.1,0.2-2,0.6-2.7c0.4-0.7,0.9-1.4,1.6-1.9
		c0.7-0.5,1.5-0.9,2.3-1.1c0.9-0.3,1.8-0.5,2.7-0.6c0.9-0.1,1.9-0.2,2.8-0.2c0.9,0,1.8,0,2.6,0c0-1-0.4-1.8-1.1-2.5
		c-0.7-0.6-1.6-0.9-2.6-0.9c-1,0-1.8,0.2-2.6,0.6c-0.8,0.4-1.5,0.9-2.1,1.6l-3.1-3.2c1.1-1,2.3-1.8,3.8-2.3c1.4-0.5,2.9-0.8,4.5-0.8
		c1.7,0,3.1,0.2,4.2,0.6c1.1,0.4,2,1.1,2.6,1.9c0.7,0.8,1.1,1.8,1.4,3c0.3,1.2,0.4,2.6,0.4,4.2v9.5H164V64.8z M162.6,59
		c-0.4,0-1,0-1.6,0.1c-0.7,0-1.3,0.1-1.9,0.3c-0.6,0.2-1.1,0.5-1.5,0.8c-0.4,0.4-0.6,0.9-0.6,1.5c0,0.7,0.3,1.2,0.9,1.5
		c0.6,0.3,1.2,0.5,1.9,0.5c0.6,0,1.1-0.1,1.6-0.2c0.5-0.2,1-0.4,1.4-0.7c0.4-0.3,0.7-0.6,1-1.1c0.2-0.4,0.4-1,0.4-1.5V59H162.6z"/>
	<path class="st12" d="M173,48.4h5.6V51h0.1c0.2-0.4,0.4-0.7,0.8-1.1s0.7-0.7,1.2-1c0.5-0.3,1-0.5,1.6-0.7c0.6-0.2,1.2-0.3,1.9-0.3
		c1.5,0,2.7,0.2,3.6,0.7c0.9,0.5,1.6,1.1,2.1,1.9c0.5,0.8,0.8,1.7,1,2.8c0.2,1.1,0.3,2.3,0.3,3.5v10.4h-5.8V58c0-0.5,0-1.1-0.1-1.7
		c0-0.6-0.2-1.1-0.3-1.6c-0.2-0.5-0.5-0.9-0.9-1.2c-0.4-0.3-1-0.5-1.7-0.5c-0.7,0-1.4,0.1-1.8,0.4s-0.8,0.6-1.1,1.1
		c-0.2,0.5-0.4,1-0.5,1.5c-0.1,0.6-0.1,1.2-0.1,1.8v9.4H173V48.4z"/>
	<path class="st12" d="M214.9,67.2h-5.3v-2.5h-0.1c-0.2,0.3-0.5,0.7-0.9,1c-0.4,0.3-0.8,0.7-1.3,0.9c-0.5,0.3-1.1,0.5-1.7,0.7
		c-0.6,0.2-1.2,0.3-1.9,0.3c-1.4,0-2.7-0.2-3.8-0.7c-1.1-0.5-2.1-1.1-2.9-2c-0.8-0.9-1.4-1.9-1.9-3.1c-0.4-1.2-0.7-2.5-0.7-3.9
		c0-1.3,0.2-2.6,0.6-3.8s1-2.3,1.7-3.2s1.6-1.7,2.7-2.2c1.1-0.6,2.3-0.8,3.6-0.8c1.2,0,2.3,0.2,3.4,0.6c1,0.4,1.9,1,2.6,1.9h0.1V38
		h5.8V67.2z M209.6,57.8c0-1.4-0.4-2.6-1.2-3.4c-0.8-0.9-2-1.3-3.4-1.3s-2.6,0.4-3.4,1.3c-0.8,0.9-1.2,2-1.2,3.4
		c0,1.4,0.4,2.6,1.2,3.4c0.8,0.9,2,1.3,3.4,1.3s2.6-0.4,3.4-1.3C209.2,60.4,209.6,59.2,209.6,57.8z"/>
	<path class="st12" d="M220.1,38h5.8v12.4h0.1c0.7-0.9,1.5-1.5,2.6-1.9c1-0.4,2.2-0.6,3.4-0.6c1.3,0,2.5,0.3,3.6,0.8
		c1.1,0.6,2,1.3,2.7,2.2s1.3,2,1.7,3.2s0.6,2.5,0.6,3.8c0,1.4-0.2,2.7-0.7,3.9c-0.4,1.2-1.1,2.2-1.9,3.1c-0.8,0.9-1.8,1.5-2.9,2
		c-1.1,0.5-2.4,0.7-3.8,0.7c-0.7,0-1.3-0.1-1.9-0.3c-0.6-0.2-1.1-0.4-1.6-0.7c-0.5-0.3-0.9-0.6-1.3-0.9c-0.4-0.3-0.7-0.7-0.9-1h-0.1
		v2.5h-5.3V38z M225.4,57.8c0,1.4,0.4,2.6,1.2,3.4c0.8,0.9,2,1.3,3.4,1.3s2.6-0.4,3.4-1.3c0.8-0.9,1.2-2,1.2-3.4
		c0-1.4-0.4-2.6-1.2-3.4c-0.8-0.9-2-1.3-3.4-1.3s-2.6,0.4-3.4,1.3C225.8,55.2,225.4,56.4,225.4,57.8z"/>
	<path class="st12" d="M243.2,57.8c0-1.5,0.3-2.8,0.8-4.1c0.5-1.2,1.3-2.2,2.2-3.1c0.9-0.9,2-1.5,3.3-2s2.6-0.7,4.1-0.7
		c1.4,0,2.8,0.2,4.1,0.7s2.4,1.1,3.3,2c0.9,0.9,1.7,1.9,2.2,3.1c0.5,1.2,0.8,2.6,0.8,4.1c0,1.5-0.3,2.8-0.8,4.1
		c-0.5,1.2-1.3,2.2-2.2,3.1c-0.9,0.9-2,1.5-3.3,2s-2.6,0.7-4.1,0.7c-1.4,0-2.8-0.2-4.1-0.7s-2.4-1.1-3.3-2c-0.9-0.9-1.7-1.9-2.2-3.1
		C243.5,60.6,243.2,59.3,243.2,57.8z M249,57.8c0,1.4,0.4,2.6,1.2,3.4c0.8,0.9,2,1.3,3.4,1.3s2.6-0.4,3.4-1.3c0.8-0.9,1.2-2,1.2-3.4
		c0-1.4-0.4-2.6-1.2-3.4c-0.8-0.9-2-1.3-3.4-1.3s-2.6,0.4-3.4,1.3C249.4,55.2,249,56.4,249,57.8z"/>
	<path class="st12" d="M266.8,57.8c0-1.5,0.3-2.8,0.8-4.1c0.5-1.2,1.3-2.2,2.2-3.1c0.9-0.9,2-1.5,3.3-2s2.6-0.7,4.1-0.7
		c1.4,0,2.8,0.2,4.1,0.7s2.4,1.1,3.3,2c0.9,0.9,1.7,1.9,2.2,3.1c0.5,1.2,0.8,2.6,0.8,4.1c0,1.5-0.3,2.8-0.8,4.1
		c-0.5,1.2-1.3,2.2-2.2,3.1c-0.9,0.9-2,1.5-3.3,2s-2.6,0.7-4.1,0.7c-1.4,0-2.8-0.2-4.1-0.7s-2.4-1.1-3.3-2c-0.9-0.9-1.7-1.9-2.2-3.1
		C267,60.6,266.8,59.3,266.8,57.8z M272.6,57.8c0,1.4,0.4,2.6,1.2,3.4c0.8,0.9,2,1.3,3.4,1.3s2.6-0.4,3.4-1.3c0.8-0.9,1.2-2,1.2-3.4
		c0-1.4-0.4-2.6-1.2-3.4c-0.8-0.9-2-1.3-3.4-1.3s-2.6,0.4-3.4,1.3C273,55.2,272.6,56.4,272.6,57.8z"/>
	<path class="st12" d="M291,38h5.8v17.9l6.4-7.4h7.1l-7.5,8.5l7.7,10.3h-7.3l-6.3-9.5h-0.1v9.5H291V38z"/>
	<path class="st12" d="M325.2,58.3c0.2-1.4,0.6-2.6,1.2-3.8c0.6-1.1,1.4-2.1,2.4-3c0.9-0.8,2-1.5,3.2-2c1.2-0.5,2.5-0.7,3.9-0.7
		c1.4,0,2.6,0.2,3.7,0.7c1.1,0.5,2,1.1,2.7,2c0.7,0.8,1.2,1.8,1.5,3c0.3,1.1,0.4,2.4,0.2,3.8c-0.2,1.4-0.6,2.6-1.2,3.8
		c-0.6,1.1-1.4,2.1-2.4,3c-1,0.8-2,1.5-3.2,2c-1.2,0.5-2.5,0.7-3.9,0.7s-2.6-0.2-3.7-0.7c-1.1-0.5-2-1.1-2.7-2
		c-0.7-0.8-1.2-1.8-1.5-3S325,59.6,325.2,58.3z M327.6,58.3c-0.2,1-0.1,2,0.1,2.8c0.2,0.9,0.6,1.7,1.1,2.3c0.5,0.7,1.2,1.2,2,1.6
		c0.8,0.4,1.8,0.6,2.9,0.6c1.1,0,2.1-0.2,3-0.6c0.9-0.4,1.7-0.9,2.5-1.6c0.7-0.7,1.3-1.4,1.7-2.3c0.5-0.9,0.8-1.8,0.9-2.8
		c0.2-1,0.1-2-0.1-2.8c-0.2-0.9-0.6-1.7-1.1-2.3c-0.5-0.7-1.2-1.2-2-1.6c-0.8-0.4-1.8-0.6-2.9-0.6s-2.1,0.2-3,0.6
		c-0.9,0.4-1.7,0.9-2.5,1.6c-0.7,0.7-1.3,1.4-1.7,2.3C328,56.3,327.7,57.3,327.6,58.3z"/>
	<path class="st12" d="M351.5,51.4h-3.7l0.3-2.1h3.7l0.9-5.8c0.2-1.2,0.5-2.1,0.9-2.9c0.5-0.8,1-1.4,1.5-1.8c0.6-0.5,1.2-0.8,1.9-1
		c0.7-0.2,1.3-0.3,1.8-0.3c1.1,0,2,0.2,2.6,0.5l-0.8,2c-0.5-0.3-1.2-0.4-2-0.4c-2.1,0-3.4,1.6-3.8,4.8l-0.7,5h4.2l-0.3,2.1h-4.2
		l-2.2,15.8h-2.3L351.5,51.4z"/>
	<path class="st12" d="M123.9,86.2h6V108h11.2v5.6h-17.2V86.2z"/>
	<path class="st12" d="M155.4,111.2L155.4,111.2c-0.7,1-1.6,1.7-2.6,2.2c-1.1,0.4-2.2,0.7-3.4,0.7c-0.9,0-1.7-0.1-2.5-0.4
		s-1.5-0.6-2.1-1.1c-0.6-0.5-1.1-1.1-1.5-1.8c-0.4-0.7-0.5-1.6-0.5-2.5c0-1.1,0.2-2,0.6-2.7c0.4-0.7,0.9-1.4,1.6-1.9
		c0.7-0.5,1.5-0.9,2.3-1.1c0.9-0.3,1.8-0.5,2.7-0.6c0.9-0.1,1.9-0.2,2.8-0.2c0.9,0,1.8,0,2.6,0c0-1-0.4-1.8-1.1-2.5
		c-0.7-0.6-1.6-0.9-2.6-0.9c-1,0-1.8,0.2-2.6,0.6c-0.8,0.4-1.5,0.9-2.1,1.6l-3.1-3.2c1.1-1,2.3-1.8,3.8-2.3c1.4-0.5,2.9-0.8,4.5-0.8
		c1.7,0,3.1,0.2,4.2,0.6c1.1,0.4,2,1.1,2.6,1.9c0.7,0.8,1.1,1.8,1.4,3c0.3,1.2,0.4,2.6,0.4,4.2v9.5h-5.3V111.2z M154,105.3
		c-0.4,0-1,0-1.6,0.1c-0.7,0-1.3,0.1-1.9,0.3c-0.6,0.2-1.1,0.5-1.5,0.8c-0.4,0.4-0.6,0.9-0.6,1.5c0,0.7,0.3,1.2,0.9,1.5
		c0.6,0.3,1.2,0.5,1.9,0.5c0.6,0,1.1-0.1,1.6-0.2c0.5-0.2,1-0.4,1.4-0.7c0.4-0.3,0.7-0.6,1-1.1c0.2-0.4,0.4-1,0.4-1.5v-1.2H154z"/>
	<path class="st12" d="M177.2,99.4h-5.1v6.3c0,0.5,0,1,0.1,1.4c0.1,0.4,0.2,0.8,0.3,1.1c0.2,0.3,0.5,0.5,0.8,0.7s0.9,0.3,1.5,0.3
		c0.3,0,0.7,0,1.2-0.1c0.5-0.1,0.9-0.2,1.1-0.4v4.8c-0.6,0.2-1.3,0.4-2,0.5c-0.7,0.1-1.4,0.1-2,0.1c-1,0-1.9-0.1-2.7-0.3
		c-0.8-0.2-1.5-0.5-2.2-1c-0.6-0.5-1.1-1-1.4-1.8c-0.3-0.7-0.5-1.6-0.5-2.6v-8.9h-3.7v-4.6h3.7v-5.6h5.8v5.6h5.1V99.4z"/>
	<path class="st12" d="M179.8,88.9c0-0.9,0.3-1.7,1-2.4c0.7-0.7,1.4-1,2.4-1c0.9,0,1.7,0.3,2.4,1c0.7,0.7,1,1.4,1,2.4
		c0,0.9-0.3,1.7-1,2.4c-0.7,0.7-1.4,1-2.4,1c-0.9,0-1.7-0.3-2.4-1C180.1,90.6,179.8,89.8,179.8,88.9z M180.2,94.8h5.8v18.8h-5.8
		V94.8z"/>
	<path class="st12" d="M190.2,94.8h5.6v2.6h0.1c0.2-0.4,0.4-0.7,0.8-1.1s0.7-0.7,1.2-1c0.5-0.3,1-0.5,1.6-0.7
		c0.6-0.2,1.2-0.3,1.9-0.3c1.5,0,2.7,0.2,3.6,0.7c0.9,0.5,1.6,1.1,2.1,1.9c0.5,0.8,0.8,1.7,1,2.8c0.2,1.1,0.3,2.3,0.3,3.5v10.4h-5.8
		v-9.2c0-0.5,0-1.1-0.1-1.7c0-0.6-0.2-1.1-0.3-1.6c-0.2-0.5-0.5-0.9-0.9-1.2c-0.4-0.3-1-0.5-1.7-0.5c-0.7,0-1.4,0.1-1.8,0.4
		s-0.8,0.6-1.1,1.1c-0.2,0.5-0.4,1-0.5,1.5c-0.1,0.6-0.1,1.2-0.1,1.8v9.4h-5.8V94.8z"/>
	<path class="st12" d="M233.6,86.2h5l11.9,27.4h-6.8l-2.4-5.8h-10.6l-2.3,5.8h-6.6L233.6,86.2z M235.9,94.2l-3.3,8.5h6.7L235.9,94.2
		z"/>
	<path class="st12" d="M252.5,94.8h5.6v2.6h0.1c0.2-0.4,0.4-0.7,0.8-1.1s0.7-0.7,1.2-1c0.5-0.3,1-0.5,1.6-0.7
		c0.6-0.2,1.2-0.3,1.9-0.3c1.3,0,2.5,0.3,3.5,0.8c1,0.5,1.8,1.4,2.3,2.6c0.7-1.2,1.5-2.1,2.4-2.6c1-0.5,2.1-0.8,3.5-0.8
		c1.3,0,2.3,0.2,3.2,0.6c0.9,0.4,1.5,1,2,1.7s0.9,1.6,1.1,2.6c0.2,1,0.3,2.1,0.3,3.2v11.1h-5.8v-10.9c0-0.9-0.2-1.6-0.6-2.3
		c-0.4-0.6-1-0.9-2-0.9c-0.7,0-1.2,0.1-1.7,0.3c-0.5,0.2-0.8,0.5-1.1,0.9c-0.3,0.4-0.5,0.8-0.6,1.4c-0.1,0.5-0.2,1.1-0.2,1.6v9.9
		h-5.8v-9.9c0-0.3,0-0.7,0-1.2c0-0.5-0.1-1-0.3-1.4c-0.2-0.4-0.4-0.8-0.8-1.1c-0.3-0.3-0.9-0.5-1.5-0.5c-0.7,0-1.4,0.1-1.8,0.4
		s-0.8,0.6-1.1,1.1c-0.2,0.5-0.4,1-0.5,1.5c-0.1,0.6-0.1,1.2-0.1,1.8v9.4h-5.8V94.8z"/>
	<path class="st12" d="M303.9,110.3c-0.9,1.2-2.1,2.1-3.5,2.7c-1.4,0.6-2.9,1-4.4,1c-1.4,0-2.8-0.2-4.1-0.7s-2.4-1.1-3.3-2
		c-0.9-0.9-1.7-1.9-2.2-3.1c-0.5-1.2-0.8-2.6-0.8-4.1c0-1.5,0.3-2.8,0.8-4.1c0.5-1.2,1.3-2.2,2.2-3.1c0.9-0.9,2-1.5,3.3-2
		s2.6-0.7,4.1-0.7c1.3,0,2.6,0.2,3.7,0.7c1.1,0.5,2,1.1,2.8,2c0.8,0.9,1.3,1.9,1.8,3.1c0.4,1.2,0.6,2.6,0.6,4.1v1.8h-13.5
		c0.2,1.1,0.7,2,1.5,2.6c0.8,0.7,1.7,1,2.9,1c1,0,1.8-0.2,2.4-0.6c0.7-0.4,1.2-1,1.7-1.6L303.9,110.3z M299,102.1c0-1-0.3-1.8-1-2.5
		c-0.7-0.7-1.5-1-2.6-1c-0.6,0-1.2,0.1-1.7,0.3c-0.5,0.2-0.9,0.5-1.3,0.8c-0.3,0.3-0.6,0.7-0.8,1.1c-0.2,0.4-0.3,0.9-0.3,1.3H299z"
		/>
	<path class="st12" d="M308.3,94.8h5.8v3h0.1c0.6-1.2,1.4-2,2.2-2.6c0.9-0.6,1.9-0.9,3.2-0.9c0.3,0,0.7,0,1,0c0.3,0,0.6,0.1,0.9,0.2
		v5.3c-0.4-0.1-0.8-0.2-1.2-0.3c-0.4-0.1-0.8-0.1-1.3-0.1c-1.1,0-2,0.2-2.6,0.5c-0.6,0.3-1.1,0.7-1.5,1.3c-0.3,0.6-0.6,1.2-0.7,2
		c-0.1,0.8-0.2,1.6-0.2,2.6v7.8h-5.8V94.8z"/>
	<path class="st12" d="M323.6,88.9c0-0.9,0.3-1.7,1-2.4c0.7-0.7,1.4-1,2.4-1c0.9,0,1.7,0.3,2.4,1c0.7,0.7,1,1.4,1,2.4
		c0,0.9-0.3,1.7-1,2.4c-0.7,0.7-1.4,1-2.4,1c-0.9,0-1.7-0.3-2.4-1C323.9,90.6,323.6,89.8,323.6,88.9z M324.1,94.8h5.8v18.8h-5.8
		V94.8z"/>
	<path class="st12" d="M346.8,100.9c-0.3-0.4-0.7-0.8-1.2-1c-0.5-0.3-1.1-0.4-1.7-0.4c-1.5,0-2.6,0.4-3.4,1.3
		c-0.8,0.9-1.2,2-1.2,3.4c0,1.4,0.4,2.6,1.2,3.4s2,1.3,3.4,1.3c0.6,0,1.2-0.1,1.7-0.4c0.5-0.3,0.9-0.6,1.2-1l3.8,4
		c-0.9,0.9-2,1.6-3.2,2c-1.2,0.4-2.4,0.6-3.5,0.6c-1.4,0-2.8-0.2-4.1-0.7s-2.4-1.1-3.3-2c-0.9-0.9-1.7-1.9-2.2-3.1
		c-0.5-1.2-0.8-2.6-0.8-4.1c0-1.5,0.3-2.8,0.8-4.1c0.5-1.2,1.3-2.2,2.2-3.1c0.9-0.9,2-1.5,3.3-2s2.6-0.7,4.1-0.7
		c1.1,0,2.3,0.2,3.5,0.6c1.2,0.4,2.3,1,3.2,2L346.8,100.9z"/>
	<path class="st12" d="M364.5,111.2L364.5,111.2c-0.7,1-1.6,1.7-2.6,2.2c-1.1,0.4-2.2,0.7-3.4,0.7c-0.9,0-1.7-0.1-2.5-0.4
		s-1.5-0.6-2.1-1.1c-0.6-0.5-1.1-1.1-1.5-1.8c-0.4-0.7-0.5-1.6-0.5-2.5c0-1.1,0.2-2,0.6-2.7c0.4-0.7,0.9-1.4,1.6-1.9
		c0.7-0.5,1.5-0.9,2.3-1.1c0.9-0.3,1.8-0.5,2.7-0.6c0.9-0.1,1.9-0.2,2.8-0.2c0.9,0,1.8,0,2.6,0c0-1-0.4-1.8-1.1-2.5
		c-0.7-0.6-1.6-0.9-2.6-0.9c-1,0-1.8,0.2-2.6,0.6c-0.8,0.4-1.5,0.9-2.1,1.6l-3.1-3.2c1.1-1,2.3-1.8,3.8-2.3c1.4-0.5,2.9-0.8,4.5-0.8
		c1.7,0,3.1,0.2,4.2,0.6c1.1,0.4,2,1.1,2.6,1.9c0.7,0.8,1.1,1.8,1.4,3c0.3,1.2,0.4,2.6,0.4,4.2v9.5h-5.3V111.2z M363,105.3
		c-0.4,0-1,0-1.6,0.1c-0.7,0-1.3,0.1-1.9,0.3c-0.6,0.2-1.1,0.5-1.5,0.8c-0.4,0.4-0.6,0.9-0.6,1.5c0,0.7,0.3,1.2,0.9,1.5
		c0.6,0.3,1.2,0.5,1.9,0.5c0.6,0,1.1-0.1,1.6-0.2c0.5-0.2,1-0.4,1.4-0.7c0.4-0.3,0.7-0.6,1-1.1c0.2-0.4,0.4-1,0.4-1.5v-1.2H363z"/>
	<path class="st12" d="M373.4,94.8h5.6v2.6h0.1c0.2-0.4,0.4-0.7,0.8-1.1s0.7-0.7,1.2-1c0.5-0.3,1-0.5,1.6-0.7
		c0.6-0.2,1.2-0.3,1.9-0.3c1.5,0,2.7,0.2,3.6,0.7c0.9,0.5,1.6,1.1,2.1,1.9c0.5,0.8,0.8,1.7,1,2.8c0.2,1.1,0.3,2.3,0.3,3.5v10.4h-5.8
		v-9.2c0-0.5,0-1.1-0.1-1.7c0-0.6-0.2-1.1-0.3-1.6c-0.2-0.5-0.5-0.9-0.9-1.2c-0.4-0.3-1-0.5-1.7-0.5c-0.7,0-1.4,0.1-1.8,0.4
		s-0.8,0.6-1.1,1.1c-0.2,0.5-0.4,1-0.5,1.5c-0.1,0.6-0.1,1.2-0.1,1.8v9.4h-5.8V94.8z"/>
	<path class="st12" d="M421.3,92.9c-0.5-0.6-1.2-1.1-2-1.4c-0.8-0.3-1.6-0.4-2.4-0.4c-0.4,0-0.9,0.1-1.4,0.2
		c-0.5,0.1-0.9,0.3-1.3,0.5c-0.4,0.2-0.7,0.5-1,0.9c-0.3,0.4-0.4,0.8-0.4,1.3c0,0.8,0.3,1.5,0.9,1.9c0.6,0.4,1.4,0.8,2.3,1.1
		c0.9,0.3,2,0.6,3,0.9c1.1,0.3,2.1,0.7,3,1.3c0.9,0.6,1.7,1.3,2.3,2.3c0.6,1,0.9,2.2,0.9,3.8c0,1.5-0.3,2.8-0.9,4
		c-0.6,1.1-1.3,2.1-2.3,2.8c-1,0.7-2.1,1.3-3.4,1.7c-1.3,0.4-2.6,0.5-4,0.5c-1.8,0-3.4-0.3-4.9-0.8c-1.5-0.5-2.9-1.4-4.3-2.6
		l4.3-4.7c0.6,0.8,1.4,1.5,2.3,1.9c0.9,0.5,1.9,0.7,2.9,0.7c0.5,0,1-0.1,1.5-0.2s1-0.3,1.4-0.5c0.4-0.2,0.7-0.5,1-0.9
		c0.2-0.4,0.4-0.8,0.4-1.3c0-0.8-0.3-1.5-0.9-2c-0.6-0.5-1.4-0.9-2.4-1.2c-1-0.3-2-0.7-3.1-1c-1.1-0.3-2.1-0.8-3.1-1.4
		c-1-0.6-1.7-1.3-2.4-2.2c-0.6-0.9-0.9-2.2-0.9-3.7c0-1.5,0.3-2.8,0.9-3.9c0.6-1.1,1.4-2,2.3-2.8c1-0.7,2.1-1.3,3.3-1.7
		c1.3-0.4,2.6-0.6,3.9-0.6c1.5,0,3,0.2,4.5,0.7c1.4,0.4,2.7,1.2,3.9,2.2L421.3,92.9z"/>
	<path class="st12" d="M442,99.4h-5.1v6.3c0,0.5,0,1,0.1,1.4c0.1,0.4,0.2,0.8,0.3,1.1c0.2,0.3,0.5,0.5,0.8,0.7s0.9,0.3,1.5,0.3
		c0.3,0,0.7,0,1.2-0.1c0.5-0.1,0.9-0.2,1.1-0.4v4.8c-0.6,0.2-1.3,0.4-2,0.5c-0.7,0.1-1.4,0.1-2,0.1c-1,0-1.9-0.1-2.7-0.3
		c-0.8-0.2-1.5-0.5-2.2-1c-0.6-0.5-1.1-1-1.4-1.8c-0.3-0.7-0.5-1.6-0.5-2.6v-8.9h-3.7v-4.6h3.7v-5.6h5.8v5.6h5.1V99.4z"/>
	<path class="st12" d="M463.1,113.6h-5.6V111h-0.1c-0.2,0.4-0.5,0.7-0.8,1.1c-0.3,0.4-0.7,0.7-1.2,1c-0.5,0.3-1,0.5-1.6,0.7
		c-0.6,0.2-1.2,0.3-1.9,0.3c-1.5,0-2.7-0.2-3.6-0.7c-0.9-0.5-1.6-1.1-2.1-1.9s-0.8-1.7-1-2.8c-0.2-1.1-0.3-2.3-0.3-3.5V94.8h5.8v9.2
		c0,0.5,0,1.1,0.1,1.7c0,0.6,0.2,1.1,0.3,1.6c0.2,0.5,0.5,0.9,0.9,1.2c0.4,0.3,1,0.5,1.7,0.5c0.7,0,1.4-0.1,1.8-0.4
		c0.5-0.3,0.8-0.6,1.1-1.1c0.2-0.5,0.4-1,0.5-1.5c0.1-0.6,0.1-1.2,0.1-1.8v-9.4h5.8V113.6z"/>
	<path class="st12" d="M486.9,113.6h-5.3v-2.5h-0.1c-0.2,0.3-0.5,0.7-0.9,1c-0.4,0.3-0.8,0.7-1.3,0.9c-0.5,0.3-1.1,0.5-1.7,0.7
		c-0.6,0.2-1.2,0.3-1.9,0.3c-1.4,0-2.7-0.2-3.8-0.7c-1.1-0.5-2.1-1.1-2.9-2c-0.8-0.9-1.4-1.9-1.9-3.1c-0.4-1.2-0.7-2.5-0.7-3.9
		c0-1.3,0.2-2.6,0.6-3.8s1-2.3,1.7-3.2s1.6-1.7,2.7-2.2c1.1-0.6,2.3-0.8,3.6-0.8c1.2,0,2.3,0.2,3.4,0.6c1,0.4,1.9,1,2.6,1.9h0.1
		V84.3h5.8V113.6z M481.5,104.2c0-1.4-0.4-2.6-1.2-3.4c-0.8-0.9-2-1.3-3.4-1.3s-2.6,0.4-3.4,1.3c-0.8,0.9-1.2,2-1.2,3.4
		c0,1.4,0.4,2.6,1.2,3.4c0.8,0.9,2,1.3,3.4,1.3s2.6-0.4,3.4-1.3C481.1,106.7,481.5,105.6,481.5,104.2z"/>
	<path class="st12" d="M491.1,88.9c0-0.9,0.3-1.7,1-2.4c0.7-0.7,1.4-1,2.4-1c0.9,0,1.7,0.3,2.4,1c0.7,0.7,1,1.4,1,2.4
		c0,0.9-0.3,1.7-1,2.4c-0.7,0.7-1.4,1-2.4,1c-0.9,0-1.7-0.3-2.4-1C491.5,90.6,491.1,89.8,491.1,88.9z M491.6,94.8h5.8v18.8h-5.8
		V94.8z"/>
	<path class="st12" d="M519.3,110.3c-0.9,1.2-2.1,2.1-3.5,2.7c-1.4,0.6-2.9,1-4.4,1c-1.4,0-2.8-0.2-4.1-0.7s-2.4-1.1-3.3-2
		c-0.9-0.9-1.7-1.9-2.2-3.1c-0.5-1.2-0.8-2.6-0.8-4.1c0-1.5,0.3-2.8,0.8-4.1c0.5-1.2,1.3-2.2,2.2-3.1c0.9-0.9,2-1.5,3.3-2
		s2.6-0.7,4.1-0.7c1.3,0,2.6,0.2,3.7,0.7c1.1,0.5,2,1.1,2.8,2c0.8,0.9,1.3,1.9,1.8,3.1c0.4,1.2,0.6,2.6,0.6,4.1v1.8h-13.5
		c0.2,1.1,0.7,2,1.5,2.6c0.8,0.7,1.7,1,2.9,1c1,0,1.8-0.2,2.4-0.6c0.7-0.4,1.2-1,1.7-1.6L519.3,110.3z M514.4,102.1
		c0-1-0.3-1.8-1-2.5c-0.7-0.7-1.5-1-2.6-1c-0.6,0-1.2,0.1-1.7,0.3c-0.5,0.2-0.9,0.5-1.3,0.8c-0.3,0.3-0.6,0.7-0.8,1.1
		c-0.2,0.4-0.3,0.9-0.3,1.3H514.4z"/>
	<path class="st12" d="M534.4,100.3c-0.9-1.1-2-1.6-3.4-1.6c-0.5,0-1,0.1-1.4,0.3s-0.7,0.6-0.7,1.2c0,0.5,0.2,0.8,0.7,1
		c0.5,0.2,1.1,0.4,1.8,0.6c0.7,0.2,1.5,0.3,2.4,0.5c0.8,0.2,1.6,0.5,2.4,0.9c0.7,0.4,1.3,1,1.8,1.7c0.5,0.7,0.7,1.7,0.7,2.8
		c0,1.2-0.3,2.2-0.8,3c-0.5,0.8-1.2,1.4-2,1.9c-0.8,0.5-1.8,0.8-2.8,1c-1,0.2-2,0.3-3.1,0.3c-1.3,0-2.6-0.2-4-0.6
		c-1.3-0.4-2.5-1-3.4-2l3.5-3.9c0.5,0.7,1.1,1.2,1.8,1.5c0.7,0.3,1.4,0.5,2.3,0.5c0.7,0,1.3-0.1,1.8-0.3c0.5-0.2,0.8-0.5,0.8-1.1
		c0-0.5-0.2-0.9-0.7-1.1c-0.5-0.2-1.1-0.5-1.8-0.6c-0.7-0.2-1.5-0.3-2.4-0.5c-0.8-0.2-1.6-0.5-2.4-0.9c-0.7-0.4-1.3-0.9-1.8-1.6
		c-0.5-0.7-0.7-1.7-0.7-2.8c0-1.1,0.2-2.1,0.7-2.9c0.5-0.8,1-1.5,1.8-2c0.7-0.5,1.6-0.9,2.5-1.1c1-0.2,1.9-0.4,2.9-0.4
		c1.2,0,2.5,0.2,3.7,0.5c1.3,0.4,2.3,1,3.2,1.9L534.4,100.3z"/>
</g>
</svg>
