<?xml version="1.0" encoding="UTF-8" standalone="no"?>
<!-- Created with Inkscape (http://www.inkscape.org/) -->

<svg
   xmlns:svg="http://www.w3.org/2000/svg"
   xmlns="http://www.w3.org/2000/svg"
   version="1.0"
   width="256"
   height="256"
   id="svg2">
  <defs
     id="defs4" />
  <g
     id="g3728">
    <rect
       width="256"
       height="256"
       ry="0"
       x="0"
       y="0"
       id="rect3703"
       style="fill:#d00016;fill-opacity:1;stroke:none" />
    <g
       transform="matrix(0.28800488,0,0,0.28800488,15.74612,3.806404)"
       id="g2880">
      <path
         d="M 277.0965,136.84676 241.3549,77.27737 c 0,0 41.9151,-36.62365 82.5146,-41.48147 39.5682,-4.72213 90.1557,31.03308 119.8715,30.30033 29.7038,-0.73274 63.5458,-30.58529 63.5458,-30.58529 l 35.4431,55.0101 c 0,0 -37.5057,49.33812 -82.5146,52.06555 -58.2396,3.52803 -98.8391,-35.74164 -129.7229,-29.56759 -31.1563,6.22833 -53.3959,23.82776 -53.3959,23.82776"
         id="path3372"
         style="fill:#ffffff;fill-opacity:1;fill-rule:nonzero;stroke:none" />
      <path
         d="m 339.0205,210.83081 -97.632,0 0,101.20013 -205.9554,0 0,101.18656 205.9554,0 0,101.20012 97.632,0"
         id="path3376"
         style="fill:#ffffff;fill-opacity:1;fill-rule:nonzero;stroke:none" />
      <path
         d="m 440.5072,210.83081 97.6319,0 0,101.20013 205.9554,0 0,101.18656 -205.9554,0 0,101.20012 -97.6319,0"
         id="path3380"
         style="fill:#ffffff;fill-opacity:1;fill-rule:nonzero;stroke:none" />
      <path
         d="m 45.1411,666.47433 24.4791,0 0,-79.2178 -24.4791,0 0,79.2178 z"
         id="path3382"
         style="fill:#ffffff;fill-opacity:1;fill-rule:nonzero;stroke:none" />
      <path
         d="m 130.2394,607.47484 0,8.31801 0.2301,0 c 2.7681,-6.70326 9.5799,-9.4714 16.7446,-9.4714 5.5504,0 11.9008,1.61475 15.3604,6.11977 3.6909,4.84425 3.6909,11.54751 3.6909,17.66728 l 0,36.36583 -22.8638,0 0,-35.79592 c 0,-3.56873 0,-8.54868 -4.9664,-8.54868 -6.3504,0 -6.9203,5.4413 -6.9203,10.28556 l 0,34.05904 -22.8649,0 0,-58.99949"
         id="path3386"
         style="fill:#ffffff;fill-opacity:1;fill-rule:nonzero;stroke:none" />
      <path
         d="m 219.2694,647.3103 c 1.2755,5.65841 7.626,6.35045 12.5924,6.35045 2.3067,0 8.7658,-0.23068 8.7658,-3.69086 0,-2.99883 -7.8431,-3.58231 -9.9328,-3.81299 -12.3481,-1.73687 -27.016,-4.15222 -27.016,-19.86551 0,-6.68968 3.5812,-12.00886 9.1175,-15.46905 5.7816,-3.5823 12.3622,-4.50502 18.9439,-4.50502 11.0856,0 22.7552,4.27435 26.6773,15.3605 l -17.4371,3.35162 c -1.7369,-4.04366 -6.2419,-5.19705 -10.2856,-5.19705 -1.8454,0 -7.3817,0.56991 -7.3817,3.12094 0,1.84543 1.9681,2.64602 3.4607,2.99883 2.5369,0.69203 7.1635,1.03127 9.9328,1.38407 5.305,0.69204 11.3168,1.49263 16.0519,4.3829 5.4278,3.46018 8.3175,8.65723 8.3175,15.00768 0,16.28321 -17.2059,20.91036 -30.4898,20.91036 -13.1622,0 -25.2932,-4.27435 -29.6766,-17.89796"
         id="path3390"
         style="fill:#ffffff;fill-opacity:1;fill-rule:nonzero;stroke:none" />
      <path
         d="m 290.1708,622.48655 0,-15.00769 9.58,0 1.7369,-18.83424 19.8655,-0.67847 0,19.51271 11.7782,0 0,15.00769 -11.5481,0 0,20.3133 c 0,4.27434 -0.4613,7.62597 4.9664,7.62597 2.1852,0 4.3834,-0.46136 6.5817,-1.03127 l 0,16.51388 -13.5151,1.72331 c -6.1203,0.81416 -12.0094,-1.1534 -16.5144,-5.99765 -4.505,-4.85782 -4.3824,-10.51624 -4.3824,-16.86669 l 0,-22.28085"
         id="path3394"
         style="fill:#ffffff;fill-opacity:1;fill-rule:nonzero;stroke:none" />
      <path
         d="m 392.9439,666.47975 -22.8649,0 0,-58.99948 22.8649,0 0,58.99948 z m 0,-64.65789 -22.8649,0 0,-15.7133 22.8649,0"
         id="path3398"
         style="fill:#ffffff;fill-opacity:1;fill-rule:nonzero;stroke:none" />
      <path
         d="m 427.8139,622.48655 0,-15.00769 9.5799,0 1.7369,-18.83424 19.8655,-0.67847 0,19.51271 11.7782,0 0,15.00769 -11.547,0 0,20.3133 c 0,4.27434 -0.4624,7.62597 4.9653,7.62597 2.1852,0 4.3835,-0.46136 6.5817,-1.03127 l 0,16.51388 -13.5151,1.72331 c -6.1192,0.81416 -12.0083,-1.1534 -16.5133,-5.99765 -4.5061,-4.85782 -4.3835,-10.51624 -4.3835,-16.86669 l 0,-22.28085"
         id="path3402"
         style="fill:#ffffff;fill-opacity:1;fill-rule:nonzero;stroke:none" />
      <path
         d="m 542.9426,666.47975 0,-9.70207 -0.2312,0 c -2.4283,7.62597 -10.2714,10.85547 -17.8974,10.85547 -4.8448,0 -9.5799,-1.1534 -13.1764,-4.50502 -4.1511,-4.15222 -4.6125,-9.34928 -4.6125,-14.89914 l 0,-40.74872 22.8638,0 0,35.67379 c 0,3.81299 -0.1085,7.85665 5.088,7.85665 2.3068,0 4.492,-1.27552 5.5363,-3.35163 1.0454,-1.96755 1.1539,-4.04366 1.1539,-6.24189 l 0,-33.93692 22.8638,0 0,58.99948"
         id="path3406"
         style="fill:#ffffff;fill-opacity:1;fill-rule:nonzero;stroke:none" />
      <path
         d="m 600.1,622.48655 0,-15.00769 9.5929,0 1.7239,-18.83424 19.8655,-0.67847 0,19.51271 11.7782,0 0,15.00769 -11.5481,0 0,20.3133 c 0,4.27434 -0.4613,7.62597 4.9664,7.62597 2.1852,0 4.3834,-0.46136 6.5817,-1.03127 l 0,16.51388 -13.5151,1.72331 c -6.1192,0.81416 -12.0094,-1.1534 -16.5133,-5.99765 -4.5061,-4.85782 -4.3835,-10.51624 -4.3835,-16.86669 l 0,-22.28085"
         id="path3410"
         style="fill:#ffffff;fill-opacity:1;fill-rule:nonzero;stroke:none" />
      <path
         d="m 701.3717,636.68692 c 0,15.82184 3.8136,16.97524 7.9658,16.97524 4.1522,0 7.9646,-1.1534 7.9646,-16.97524 0,-5.65842 -0.1085,-15.93041 -7.9646,-15.93041 -7.8431,0 -7.9658,10.27199 -7.9658,15.93041 z m 40.4236,0.81416 c 0,17.89795 -14.4377,30.1375 -32.4578,30.1375 -18.0071,0 -32.4449,-12.23955 -32.4449,-30.1375 0,-18.9428 13.9765,-31.18234 32.4449,-31.18234 18.4814,0 32.4578,12.23954 32.4578,31.18234"
         id="path3414"
         style="fill:#ffffff;fill-opacity:1;fill-rule:nonzero;stroke:none" />
      <path
         d="m 108.1485,796.87838 c -1.5068,18.23719 -14.7765,30.02895 -33.0278,30.02895 -23.7876,0 -36.2573,-17.20592 -36.2573,-39.73102 0,-22.86434 10.9782,-41.79357 35.9186,-41.79357 20.2042,0 31.7512,11.9953 33.3665,31.75226 l -22.6337,1.15339 c 0.2312,-6.70325 -2.3068,-15.12981 -10.5027,-15.12981 -10.7469,0 -11.2082,16.51388 -11.2082,24.01773 0,7.9652 0.4613,21.48026 11.4395,21.48026 7.5033,0 10.3941,-6.58113 10.7328,-13.16226"
         id="path3418"
         style="fill:#ffffff;fill-opacity:1;fill-rule:nonzero;stroke:none" />
      <path
         d="m 172.5833,789.25513 c 0,-5.76697 -1.8454,-10.16344 -8.3175,-10.16344 -5.9976,0 -8.4271,4.7357 -8.1959,10.16344 l 16.5134,0 z m 23.095,16.74456 c -3.5823,14.31566 -16.2832,20.89678 -30.2596,20.89678 -8.6573,0 -17.0844,-1.84543 -23.7865,-7.73452 -6.3505,-5.65841 -9.6896,-13.73217 -9.6896,-22.1723 0,-7.9652 3.1079,-16.62244 8.6583,-22.28085 5.9976,-6.2419 15.0077,-9.1186 23.4337,-9.1186 19.6354,0 31.6437,12.7009 31.6437,32.09149 l 0,3.12095 -39.4868,0 c -0.3528,6.35045 1.954,10.97759 8.8874,10.97759 5.1976,0 8.0743,-2.07611 9.0111,-7.16461"
         id="path3422"
         style="fill:#ffffff;fill-opacity:1;fill-rule:nonzero;stroke:none" />
      <path
         d="m 239.5583,778.86503 c 1.9681,-8.19588 6.2419,-13.97642 15.3605,-13.28438 l 3.1209,0.23068 0,20.6661 c -1.3982,-0.33923 -2.8908,-0.56991 -4.3964,-0.56991 -3.6909,0 -7.5033,0.69204 -9.3499,4.04366 -1.6142,2.89027 -1.6142,6.68969 -1.6142,10.16344 l 0,25.63248 -22.8638,0 0,-59.01306 19.5117,0 0,12.13099"
         id="path3426"
         style="fill:#ffffff;fill-opacity:1;fill-rule:nonzero;stroke:none" />
      <path
         d="m 319.448,825.7471 -17.3144,0 -22.0638,-59.01306 23.9092,0 10.164,31.18234 2.0755,-6.24189 8.3045,-24.94045 16.5133,0"
         id="path3430"
         style="fill:#ffffff;fill-opacity:1;fill-rule:nonzero;stroke:none" />
      <path
         d="m 399.01,798.14978 c -5.5504,0.56991 -14.7776,2.30678 -14.7776,9.47139 0,3.81299 2.4153,5.42774 5.9977,5.42774 8.6713,0 8.7799,-7.27317 8.7799,-13.74574 l 0,-1.15339 z m 1.967,27.60003 c -0.583,-2.65959 -0.8142,-5.42773 -0.8142,-8.19588 -4.6136,6.81181 -11.1942,9.34927 -19.2815,9.34927 -10.9781,0 -20.5581,-6.01121 -20.5581,-17.7894 0,-9.34927 7.2732,-15.5776 15.4691,-18.12863 7.5174,-2.30679 15.4831,-3.22951 23.2177,-3.69086 l 0,-0.46136 c 0,-5.30561 -1.3841,-7.39529 -6.9345,-7.39529 -4.4909,0 -8.3045,1.61475 -8.9959,6.58113 l -21.0195,-1.95399 c 3.4607,-14.66845 17.4371,-18.48144 30.708,-18.48144 6.9333,0 15.8218,0.92272 21.6023,5.07494 7.7346,5.42773 6.8119,13.0537 6.8119,21.48026 l 0,20.67967 c 0,4.3829 0.1085,8.76579 1.8454,12.93158"
         id="path3434"
         style="fill:#ffffff;fill-opacity:1;fill-rule:nonzero;stroke:none" />
      <path
         d="m 468.0616,766.73676 0,8.318 0.2312,0 c 2.7671,-6.70325 9.5789,-9.4714 16.7446,-9.4714 5.5363,0 11.8998,1.61476 15.3605,6.11978 3.6898,4.85782 3.6898,11.5475 3.6898,17.66727 l 0,36.3794 -22.8638,0 0,-35.79591 c 0,-3.58231 0,-8.54869 -4.9664,-8.54869 -6.3505,0 -6.9204,5.42774 -6.9204,10.27199 l 0,34.07261 -22.8638,0 0,-59.01305"
         id="path3438"
         style="fill:#ffffff;fill-opacity:1;fill-rule:nonzero;stroke:none" />
      <path
         d="m 525.5685,781.75129 0,-15.02126 9.5799,0 1.7369,-18.80711 19.8655,-0.7056 0,19.51271 11.7782,0 0,15.02126 -11.5481,0 0,20.32686 c 0,4.27435 -0.4743,7.6124 4.9664,7.6124 2.1852,0 4.3835,-0.46135 6.5817,-1.03127 l 0,16.51389 -13.5151,1.7233 c -6.1203,0.81416 -12.0094,-1.15339 -16.5144,-5.99764 -4.505,-4.85783 -4.3824,-10.51624 -4.3824,-16.86669 l 0,-22.28085"
         id="path3442"
         style="fill:#ffffff;fill-opacity:1;fill-rule:nonzero;stroke:none" />
      <path
         d="m 631.8034,789.25513 c 0,-5.76697 -1.8455,-10.16344 -8.3186,-10.16344 -5.9976,0 -8.426,4.7357 -8.1959,10.16344 l 16.5145,0 z m 23.095,16.74456 c -3.5823,14.31566 -16.2832,20.89678 -30.2466,20.89678 -8.6703,0 -17.0974,-1.84543 -23.8006,-7.73452 -6.3505,-5.65841 -9.7016,-13.73217 -9.7016,-22.1723 0,-7.9652 3.121,-16.62244 8.6703,-22.28085 5.9976,-6.2419 15.0077,-9.1186 23.4348,-9.1186 19.6343,0 31.6437,12.7009 31.6437,32.09149 l 0,3.12095 -39.4868,0 c -0.3528,6.35045 1.954,10.97759 8.8874,10.97759 5.1976,0 8.0873,-2.07611 9.01,-7.16461"
         id="path3446"
         style="fill:#ffffff;fill-opacity:1;fill-rule:nonzero;stroke:none" />
      <path
         d="m 694.3895,806.57905 c 1.2755,5.65841 7.626,6.35045 12.5923,6.35045 2.3068,0 8.7789,-0.23068 8.7789,-3.69086 0,-2.99882 -7.8562,-3.58231 -9.9458,-3.81298 -12.3481,-1.73688 -27.0171,-4.15222 -27.0171,-19.86552 0,-6.68968 3.5823,-12.00886 9.1327,-15.46904 5.7664,-3.58231 12.3481,-4.50502 18.9287,-4.50502 11.0867,0 22.7563,4.27434 26.6773,15.36049 l -17.4361,3.33806 c -1.7368,-4.04367 -6.2419,-5.18349 -10.2855,-5.18349 -1.8455,0 -7.3817,0.56991 -7.3817,3.10738 0,1.84543 1.967,2.65959 3.4596,2.99882 2.551,0.70561 7.1646,1.04484 9.9327,1.39764 5.3062,0.69204 11.3169,1.49263 16.0531,4.3829 5.4278,3.46018 8.3175,8.65724 8.3175,15.00769 0,16.2832 -17.2059,20.91035 -30.4898,20.91035 -13.1622,0 -25.2802,-4.27434 -29.6767,-17.91153"
         id="path3450"
         style="fill:#ffffff;fill-opacity:1;fill-rule:nonzero;stroke:none" />
    </g>
  </g>
</svg>
