<svg id="Layer_1" data-name="Layer 1" xmlns="http://www.w3.org/2000/svg" xmlns:xlink="http://www.w3.org/1999/xlink" viewBox="0 0 1049.43 341.32"><defs><style>.cls-1{fill:#777;}.cls-2{fill:url(#linear-gradient);}.cls-3{fill:url(#linear-gradient-2);}.cls-4{fill:url(#linear-gradient-3);}.cls-5{fill:url(#linear-gradient-4);}.cls-6{fill:url(#linear-gradient-5);}.cls-7{fill:url(#linear-gradient-6);}.cls-8{fill:url(#linear-gradient-7);}.cls-9{fill:url(#linear-gradient-8);}.cls-10{fill:url(#linear-gradient-9);}.cls-11{fill:url(#linear-gradient-10);}.cls-12{fill:url(#linear-gradient-11);}.cls-13{fill:url(#linear-gradient-12);}.cls-14{fill:url(#linear-gradient-13);}.cls-15{fill:url(#linear-gradient-14);}.cls-16{fill:url(#linear-gradient-15);}.cls-17{fill:url(#linear-gradient-17);}.cls-18{fill:url(#linear-gradient-18);}</style><linearGradient id="linear-gradient" x1="13.9" y1="327.42" x2="319" y2="22.32" gradientUnits="userSpaceOnUse"><stop offset="0.2" stop-color="#f7cd36"/><stop offset="0.85" stop-color="#7d004a"/></linearGradient><linearGradient id="linear-gradient-2" x1="13.9" y1="327.42" x2="319" y2="22.32" xlink:href="#linear-gradient"/><linearGradient id="linear-gradient-3" x1="-43.6" y1="269.92" x2="261.5" y2="-35.18" xlink:href="#linear-gradient"/><linearGradient id="linear-gradient-4" x1="13.89" y1="327.42" x2="319" y2="22.32" xlink:href="#linear-gradient"/><linearGradient id="linear-gradient-5" x1="42.65" y1="356.17" x2="347.75" y2="51.07" xlink:href="#linear-gradient"/><linearGradient id="linear-gradient-6" x1="42.65" y1="356.17" x2="347.75" y2="51.07" xlink:href="#linear-gradient"/><linearGradient id="linear-gradient-7" x1="-14.85" y1="298.67" x2="290.25" y2="-6.43" xlink:href="#linear-gradient"/><linearGradient id="linear-gradient-8" x1="-14.85" y1="298.67" x2="290.25" y2="-6.43" xlink:href="#linear-gradient"/><linearGradient id="linear-gradient-9" x1="-101.1" y1="212.42" x2="204" y2="-92.68" xlink:href="#linear-gradient"/><linearGradient id="linear-gradient-10" x1="-43.6" y1="269.93" x2="261.5" y2="-35.18" xlink:href="#linear-gradient"/><linearGradient id="linear-gradient-11" x1="-43.6" y1="269.92" x2="261.5" y2="-35.18" xlink:href="#linear-gradient"/><linearGradient id="linear-gradient-12" x1="13.9" y1="327.42" x2="319" y2="22.32" xlink:href="#linear-gradient"/><linearGradient id="linear-gradient-13" x1="13.9" y1="327.42" x2="319" y2="22.32" xlink:href="#linear-gradient"/><linearGradient id="linear-gradient-14" x1="71.4" y1="384.92" x2="376.5" y2="79.82" xlink:href="#linear-gradient"/><linearGradient id="linear-gradient-15" x1="128.9" y1="442.42" x2="434" y2="137.32" xlink:href="#linear-gradient"/><linearGradient id="linear-gradient-17" x1="71.39" y1="384.92" x2="376.5" y2="79.82" xlink:href="#linear-gradient"/><linearGradient id="linear-gradient-18" x1="13.9" y1="327.42" x2="319" y2="22.32" xlink:href="#linear-gradient"/></defs><title>lasa-logo</title><path class="cls-1" d="M445.74,10.12h11.39V59.33H482.8V69.62H445.74Z"/><path class="cls-1" d="M537.87,69.62,532.6,57H503.53l-5.27,12.58H486.45l26.09-59.5h11.82l25.75,59.5ZM507.61,47.26h20.91l-10.37-25Z"/><path class="cls-1" d="M546.37,10.12h48.54V20.23H576.38V69.62H564.9V20.23H546.37Z"/><path class="cls-1" d="M604.68,10.12h11.39v59.5H604.68Z"/><path class="cls-1" d="M673.87,10.12h11v59.5H674.13l-30.6-41v41H632.39V10.12h10.8l30.68,41.06Z"/><path class="cls-1" d="M489.77,156.85l-5.27-12.58H455.43l-5.27,12.58H438.34l26.09-59.5h11.82L502,156.85ZM459.51,134.5h20.91L470,109.5Z"/><path class="cls-1" d="M510.93,97.35h13l19.72,38.33,19.55-38.33h13v59.5H565.76V114.18l-18.53,36.55h-7.31L521.3,114.18v42.67H510.93Z"/><path class="cls-1" d="M592.53,97.35h43.61v9.94H603.92V122h28.9v9.95h-28.9v15h33.23v9.94H592.53Z"/><path class="cls-1" d="M687.64,156.85l-10.29-17.6a18.84,18.84,0,0,1-2.12.09H661.81v17.51H650.41V97.35h24.82q11.56,0,17.85,5.35t6.29,15.13a22.37,22.37,0,0,1-3,11.9,18.47,18.47,0,0,1-8.8,7.4l13.09,19.72Zm-25.84-27.54h13.43q6.46,0,9.86-2.81t3.4-8.33q0-5.44-3.4-8.16t-9.86-2.72H661.81Z"/><path class="cls-1" d="M713.57,97.35H725v59.5H713.57Z"/><path class="cls-1" d="M776.94,108.83a20.21,20.21,0,0,0-18.83.59,19.14,19.14,0,0,0-7.22,7.27,20.9,20.9,0,0,0,0,20.31,19.44,19.44,0,0,0,7.22,7.31A19.71,19.71,0,0,0,768.22,147a21.25,21.25,0,0,0,8.54-1.87,24.51,24.51,0,0,0,7.61-5.19l6.71,7.48a35.11,35.11,0,0,1-10.88,7.52,30.66,30.66,0,0,1-12.58,2.76,31.14,31.14,0,0,1-15.73-4.08,29.91,29.91,0,0,1-11.22-11.09A30.29,30.29,0,0,1,736.6,127a29.58,29.58,0,0,1,4.17-15.47,29.92,29.92,0,0,1,11.35-11,32.93,32.93,0,0,1,28.43-1.44A30.7,30.7,0,0,1,791,106.19l-6.63,8.33A22.44,22.44,0,0,0,776.94,108.83Z"/><path class="cls-1" d="M845.66,156.85l-5.27-12.58H811.32l-5.27,12.58H794.23l26.09-59.5h11.82l25.75,59.5ZM815.4,134.5h20.91l-10.37-25Z"/><path class="cls-1" d="M908.3,97.35h11v59.5H908.56l-30.6-41v41H866.82V97.35h10.8l30.68,41.06Z"/><path class="cls-1" d="M473.74,195.55a28.36,28.36,0,0,0-8.46-1.53,11.84,11.84,0,0,0-6.46,1.53,4.8,4.8,0,0,0-2.38,4.25,5.59,5.59,0,0,0,1.66,4.12,12.94,12.94,0,0,0,4.16,2.72,65.9,65.9,0,0,0,6.84,2.34,74.81,74.81,0,0,1,9.9,3.57,17.67,17.67,0,0,1,6.59,5.27,14.51,14.51,0,0,1,2.72,9.18,15.69,15.69,0,0,1-2.93,9.48,18.37,18.37,0,0,1-8.07,6.16,30.61,30.61,0,0,1-11.77,2.13,37,37,0,0,1-13.6-2.59,38.61,38.61,0,0,1-11.56-6.93l4.76-9.69a34.81,34.81,0,0,0,10.12,6.54,26.9,26.9,0,0,0,10.46,2.38,13.27,13.27,0,0,0,7.48-1.83,6,6,0,0,0,1.06-9.18,12.34,12.34,0,0,0-4.21-2.68q-2.55-1-7-2.29a82.32,82.32,0,0,1-9.86-3.48,17.13,17.13,0,0,1-6.54-5.14,14.17,14.17,0,0,1-2.72-9.05,15.17,15.17,0,0,1,2.76-9.05,17.78,17.78,0,0,1,7.82-6,30,30,0,0,1,11.69-2.12,39.52,39.52,0,0,1,11.43,1.7,38.67,38.67,0,0,1,10.07,4.59l-4.59,9.94A43.1,43.1,0,0,0,473.74,195.55Z"/><path class="cls-1" d="M494.19,184.59h48.53V194.7H524.19v49.38H512.72V194.7H494.19Z"/><path class="cls-1" d="M566.78,230.65q4,4,10.71,4t10.58-4q3.87-4,3.87-11v-35h11.39v35a27.61,27.61,0,0,1-3.14,13.47,21.33,21.33,0,0,1-9,8.8,29.12,29.12,0,0,1-13.73,3.06,29.83,29.83,0,0,1-13.9-3.06,21.19,21.19,0,0,1-9.05-8.8,27.6,27.6,0,0,1-3.14-13.47v-35h11.39v35Q562.78,226.66,566.78,230.65Z"/><path class="cls-1" d="M659.17,188.37a27.8,27.8,0,0,1,11,10.58,29.8,29.8,0,0,1,4,15.38,29.33,29.33,0,0,1-4,15.34A28.32,28.32,0,0,1,659,240.26a33.84,33.84,0,0,1-16.24,3.83H618.45v-59.5h24.74A33.3,33.3,0,0,1,659.17,188.37Zm-5.91,43.18a17.79,17.79,0,0,0,6.84-7,22,22,0,0,0-.08-20.4,18.06,18.06,0,0,0-7-7.05,20,20,0,0,0-10-2.51H629.85v39.44h13.6A19.39,19.39,0,0,0,653.26,231.55Z"/><path class="cls-1" d="M685.86,184.59h11.39v59.5H685.86Z"/><path class="cls-1" d="M713.57,184.59h43.61v9.94H725v14.71h28.9v9.95H725v15h33.23v9.94H713.57Z"/><path class="cls-1" d="M799.46,195.55A28.36,28.36,0,0,0,791,194a11.84,11.84,0,0,0-6.46,1.53,4.79,4.79,0,0,0-2.38,4.25,5.59,5.59,0,0,0,1.66,4.12,12.93,12.93,0,0,0,4.17,2.72,65.91,65.91,0,0,0,6.84,2.34,74.86,74.86,0,0,1,9.9,3.57,17.68,17.68,0,0,1,6.59,5.27A14.51,14.51,0,0,1,814,227a15.69,15.69,0,0,1-2.93,9.48,18.37,18.37,0,0,1-8.08,6.16,30.61,30.61,0,0,1-11.77,2.13,37,37,0,0,1-13.6-2.59,38.61,38.61,0,0,1-11.56-6.93l4.76-9.69A34.81,34.81,0,0,0,781,232.1a26.9,26.9,0,0,0,10.46,2.38,13.27,13.27,0,0,0,7.48-1.83,6,6,0,0,0,1.06-9.18,12.33,12.33,0,0,0-4.21-2.68q-2.55-1-7-2.29a82.3,82.3,0,0,1-9.86-3.48,17.12,17.12,0,0,1-6.54-5.14,14.17,14.17,0,0,1-2.72-9.05,15.17,15.17,0,0,1,2.76-9.05,17.78,17.78,0,0,1,7.82-6,30,30,0,0,1,11.69-2.12,39.53,39.53,0,0,1,11.43,1.7,38.68,38.68,0,0,1,10.07,4.59l-4.59,9.94A43.08,43.08,0,0,0,799.46,195.55Z"/><path class="cls-1" d="M489.77,331.32l-5.27-12.58H455.43l-5.27,12.58H438.34l26.09-59.5h11.82L502,331.32ZM459.51,309h20.91L470,284Z"/><path class="cls-1" d="M538.51,282.78a28.37,28.37,0,0,0-8.46-1.53,11.84,11.84,0,0,0-6.46,1.53,4.8,4.8,0,0,0-2.38,4.25,5.59,5.59,0,0,0,1.66,4.12,13,13,0,0,0,4.17,2.72,65.86,65.86,0,0,0,6.84,2.34,74.92,74.92,0,0,1,9.9,3.57,17.68,17.68,0,0,1,6.59,5.27,14.51,14.51,0,0,1,2.72,9.18,15.69,15.69,0,0,1-2.93,9.48,18.37,18.37,0,0,1-8.07,6.16A30.61,30.61,0,0,1,530.31,332a37,37,0,0,1-13.6-2.59,38.62,38.62,0,0,1-11.56-6.93l4.76-9.69A34.81,34.81,0,0,0,520,319.33a26.9,26.9,0,0,0,10.46,2.38,13.27,13.27,0,0,0,7.48-1.83,6,6,0,0,0,1.06-9.18,12.36,12.36,0,0,0-4.21-2.68q-2.55-1-7-2.29a82.31,82.31,0,0,1-9.86-3.48,17.14,17.14,0,0,1-6.54-5.14,14.18,14.18,0,0,1-2.72-9.05,15.17,15.17,0,0,1,2.76-9.05,17.78,17.78,0,0,1,7.82-6A30,30,0,0,1,531,270.88a39.53,39.53,0,0,1,11.43,1.7,38.68,38.68,0,0,1,10.07,4.59l-4.59,9.94A43.1,43.1,0,0,0,538.51,282.78Z"/><path class="cls-1" d="M593.59,282.78a28.36,28.36,0,0,0-8.46-1.53,11.84,11.84,0,0,0-6.46,1.53A4.79,4.79,0,0,0,576.3,287a5.59,5.59,0,0,0,1.66,4.12,12.93,12.93,0,0,0,4.17,2.72,65.91,65.91,0,0,0,6.84,2.34,74.94,74.94,0,0,1,9.9,3.57,17.68,17.68,0,0,1,6.59,5.27,14.5,14.5,0,0,1,2.72,9.18,15.69,15.69,0,0,1-2.93,9.48,18.37,18.37,0,0,1-8.08,6.16A30.61,30.61,0,0,1,585.39,332a37,37,0,0,1-13.6-2.59,38.62,38.62,0,0,1-11.56-6.93l4.76-9.69a34.82,34.82,0,0,0,10.12,6.54,26.9,26.9,0,0,0,10.46,2.38,13.26,13.26,0,0,0,7.48-1.83,6,6,0,0,0,1.06-9.18A12.34,12.34,0,0,0,589.9,308q-2.55-1-7-2.29a82.31,82.31,0,0,1-9.86-3.48,17.13,17.13,0,0,1-6.54-5.14,14.17,14.17,0,0,1-2.72-9.05,15.17,15.17,0,0,1,2.76-9.05,17.78,17.78,0,0,1,7.82-6,30,30,0,0,1,11.69-2.12,39.53,39.53,0,0,1,11.43,1.7,38.68,38.68,0,0,1,10.07,4.59L603,287.12A43.08,43.08,0,0,0,593.59,282.78Z"/><path class="cls-1" d="M663.8,275A30.44,30.44,0,0,1,675.24,317a30.29,30.29,0,0,1-11.43,11.09,33.83,33.83,0,0,1-32.21,0A30.29,30.29,0,0,1,620.16,317,30.12,30.12,0,0,1,631.59,275a34.47,34.47,0,0,1,32.21,0Zm-26.05,8.88a20.36,20.36,0,0,0-7.35,27.84,20.54,20.54,0,0,0,7.39,7.4,19.54,19.54,0,0,0,10.07,2.72,19.16,19.16,0,0,0,9.95-2.72,20,20,0,0,0,7.27-7.4,20.33,20.33,0,0,0,2.68-10.29,20.1,20.1,0,0,0-2.68-10.24,19.78,19.78,0,0,0-7.27-7.31,19.4,19.4,0,0,0-9.95-2.68A20,20,0,0,0,637.75,283.93Z"/><path class="cls-1" d="M724.75,283.29a20.21,20.21,0,0,0-18.83.59,19.14,19.14,0,0,0-7.22,7.27,20.9,20.9,0,0,0,0,20.31,19.44,19.44,0,0,0,7.22,7.31A19.71,19.71,0,0,0,716,321.46a21.25,21.25,0,0,0,8.54-1.87,24.52,24.52,0,0,0,7.61-5.19l6.71,7.48A35.12,35.12,0,0,1,728,329.41a30.67,30.67,0,0,1-12.58,2.76,31.14,31.14,0,0,1-15.73-4.08A29.91,29.91,0,0,1,688.5,317a30.29,30.29,0,0,1-4.08-15.51A29.58,29.58,0,0,1,688.58,286a29.92,29.92,0,0,1,11.35-11,32.93,32.93,0,0,1,28.43-1.44,30.7,30.7,0,0,1,10.46,7.05L732.19,289A22.44,22.44,0,0,0,724.75,283.29Z"/><path class="cls-1" d="M750,271.82h11.39v59.5H750Z"/><path class="cls-1" d="M821.69,331.32l-5.27-12.58H787.35l-5.27,12.58H770.27l26.09-59.5h11.82l25.75,59.5ZM791.43,309h20.91L802,284Z"/><path class="cls-1" d="M830.19,271.82h48.54v10.12H860.19v49.38H848.72V281.93H830.19Z"/><path class="cls-1" d="M888.5,271.82h11.39v59.5H888.5Z"/><path class="cls-1" d="M959.35,275A30.44,30.44,0,0,1,970.78,317a30.29,30.29,0,0,1-11.43,11.09,33.83,33.83,0,0,1-32.21,0A30.29,30.29,0,0,1,915.7,317,30.12,30.12,0,0,1,927.13,275a34.47,34.47,0,0,1,32.21,0Zm-26.05,8.88a20.36,20.36,0,0,0-7.35,27.84,20.54,20.54,0,0,0,7.39,7.4,19.54,19.54,0,0,0,10.07,2.72,19.16,19.16,0,0,0,9.95-2.72,20,20,0,0,0,7.27-7.4,20.33,20.33,0,0,0,2.68-10.29,20.1,20.1,0,0,0-2.68-10.24,19.78,19.78,0,0,0-7.27-7.31,19.4,19.4,0,0,0-9.95-2.68A20,20,0,0,0,933.29,283.93Z"/><path class="cls-1" d="M1028.15,271.82h11v59.5h-10.79l-30.6-41v41H986.67v-59.5h10.8l30.68,41.06Z"/><path class="cls-2" d="M331.32,101.32V10H240V32H216.32V10H125V32H101.32V10H10v91.32H32V125H10v91.32H32V240H10v91.32h91.32v-22H125v22h91.31v-22H240v22h91.31V240h-22V216.31h22V125h-22V101.32Zm-5.26,28.94v80.8H259.37v34.2h66.69v80.81h-80.8V259.38h-34.2v66.69h-80.8V259.38H96.06v66.69H15.26V245.26H81.95v-34.2H15.26v-80.8H81.95V96.06H15.26V15.25H96.06v66.7h34.2V15.25h80.8v66.7h34.2V15.25h80.8V96.06H259.37v34.2Z"/><polygon class="cls-3" points="311.95 29.37 309.32 29.37 259.37 29.37 259.37 81.95 311.95 81.95 311.95 29.37"/><polygon class="cls-4" points="144.37 29.37 144.37 81.95 196.94 81.95 196.94 29.37 194.32 29.37 144.37 29.37"/><polygon class="cls-5" points="144.37 144.37 144.37 196.94 196.94 196.94 196.94 144.37 194.32 144.37 144.37 144.37"/><polygon class="cls-6" points="211.06 144.37 211.06 196.94 245.26 196.94 245.26 144.37 242.63 144.37 211.06 144.37"/><polygon class="cls-7" points="144.37 211.06 144.37 245.25 196.94 245.25 196.94 211.06 194.32 211.06 144.37 211.06"/><polygon class="cls-8" points="96.06 144.37 96.06 196.94 130.26 196.94 130.26 144.37 127.63 144.37 96.06 144.37"/><polygon class="cls-9" points="144.37 96.06 144.37 130.26 196.94 130.26 196.94 96.06 194.32 96.06 144.37 96.06"/><polygon class="cls-10" points="29.37 29.37 29.37 81.95 81.95 81.95 81.95 29.37 79.32 29.37 29.37 29.37"/><polygon class="cls-11" points="96.06 96.06 96.06 130.26 130.26 130.26 130.26 96.06 127.63 96.06 96.06 96.06"/><polygon class="cls-12" points="29.37 144.37 29.37 196.94 81.95 196.94 81.95 144.37 79.32 144.37 29.37 144.37"/><polygon class="cls-13" points="29.37 259.38 29.37 311.95 81.95 311.95 81.95 259.38 79.32 259.38 29.37 259.38"/><polygon class="cls-14" points="96.06 211.06 96.06 245.25 130.26 245.25 130.26 211.06 127.63 211.06 96.06 211.06"/><polygon class="cls-15" points="144.37 259.38 144.37 311.95 196.94 311.95 196.94 259.38 194.32 259.38 144.37 259.38"/><polygon class="cls-16" points="259.37 311.95 311.95 311.95 311.95 259.38 309.32 259.38 259.37 259.38 259.37 311.95"/><polygon class="cls-15" points="211.06 211.06 211.06 245.25 245.26 245.25 245.26 211.06 242.63 211.06 211.06 211.06"/><polygon class="cls-17" points="259.37 196.94 311.95 196.94 311.95 144.37 309.32 144.37 259.37 144.37 259.37 196.94"/><polygon class="cls-18" points="211.06 96.06 211.06 130.26 245.26 130.26 245.26 96.06 242.63 96.06 211.06 96.06"/></svg>